<svg xmlns="http://www.w3.org/2000/svg" version="1.1" xmlns:xlink="http://www.w3.org/1999/xlink" xmlns:svgjs="http://svgjs.dev/svgjs" width="1440" height="560" preserveAspectRatio="none" viewBox="0 0 1440 560"><g mask="url(&quot;#SvgjsMask1035&quot;)" fill="none"><rect width="1440" height="560" x="0" y="0" fill="rgba(254, 220, 222, 1)"></rect><path d="M720 696.09C828.32 690.89 923.01 636.18 1003.53 563.53 1089.61 485.84 1179.48 395.94 1181.11 280 1182.74 163.11 1102.67 61.69 1011.58-11.58 929.98-77.24 824.65-94.54 720-90.97 619.67-87.57 526.03-55.07 447.59 7.59 357.36 79.67 263.38 164.77 255.56 280 247.4 400.09 318.26 511.78 407.91 592.09 492.81 668.14 606.13 701.57 720 696.09" fill="rgba(255, 202, 206, 1)"></path><path d="M720 549.24C790.09 545.87 851.36 510.47 903.46 463.46 959.16 413.19 1017.31 355.02 1018.36 280 1019.42 204.36 967.61 138.74 908.67 91.33 855.87 48.85 787.72 37.65 720 39.96 655.08 42.16 594.49 63.19 543.74 103.74 485.35 150.38 424.54 205.44 419.48 280 414.2 357.7 460.05 429.97 518.06 481.94 573 531.15 646.32 552.78 720 549.24" fill="rgba(239, 170, 175, 1)"></path><path d="M720 402.38C751.86 400.85 779.71 384.76 803.39 363.39 828.71 340.54 855.14 314.1 855.62 280 856.1 245.62 832.55 215.79 805.76 194.24 781.76 174.93 750.78 169.84 720 170.89 690.49 171.89 662.95 181.45 639.88 199.88 613.34 221.08 585.7 246.11 583.4 280 581 315.32 601.84 348.17 628.21 371.79 653.18 394.16 686.51 403.99 720 402.38" fill="rgba(201, 151, 155, 1)"></path></g><defs><mask id="SvgjsMask1035"><rect width="1440" height="560" fill="#ffffff"></rect></mask></defs></svg>