<svg xmlns="http://www.w3.org/2000/svg" version="1.1" xmlns:xlink="http://www.w3.org/1999/xlink" xmlns:svgjs="http://svgjs.dev/svgjs" width="1440" height="560" preserveAspectRatio="none" viewBox="0 0 1440 560"><g mask="url(&quot;#SvgjsMask1006&quot;)" fill="none"><path d="M-150.34 61.58C33.9 61.96 276.29 166.81 577.17 179.18 878.04 191.55 811.78 536.66 940.92 571.5" stroke="rgba(239, 147, 154, 1)" stroke-width="2"></path><path d="M-220.13 39.58C-35.67 42.7 104.98 265.74 479.34 274.78 853.7 283.82 988.62 568.71 1178.81 574.96" stroke="rgba(239, 147, 154, 1)" stroke-width="2"></path><path d="M-97.54 347.17C14.59 344.04 101.72 176.66 318.51 179.17 535.3 181.68 591.87 558.57 734.56 591.4" stroke="rgba(239, 147, 154, 1)" stroke-width="2"></path><path d="M-191.87 230.08C-46.88 234.54 116.51 441.15 343.38 454.08 570.25 467.01 527.87 645.28 611 656.21" stroke="rgba(239, 147, 154, 1)" stroke-width="2"></path><path d="M-87.1 468.38C49.68 466.71 170.44 310.73 437.11 311.58 703.79 312.43 804.08 649.05 961.33 665.05" stroke="rgba(239, 147, 154, 1)" stroke-width="2"></path></g><defs><mask id="SvgjsMask1006"><rect width="1440" height="560" fill="#ffffff"></rect></mask></defs></svg>