<svg xmlns="http://www.w3.org/2000/svg" version="1.1" xmlns:xlink="http://www.w3.org/1999/xlink" xmlns:svgjs="http://svgjs.dev/svgjs" width="1440" height="560" preserveAspectRatio="none" viewBox="0 0 1440 560"><g mask="url(&quot;#SvgjsMask1008&quot;)" fill="none"><rect width="1440" height="560" x="0" y="0" fill="rgba(228, 145, 145, 1)"></rect><path d="M 0,257 C 57.6,217.8 172.8,62.2 288,61 C 403.2,59.8 460.8,239.6 576,251 C 691.2,262.4 748.8,136.8 864,118 C 979.2,99.2 1036.8,167.8 1152,157 C 1267.2,146.2 1382.4,82.6 1440,64L1440 560L0 560z" fill="rgba(255, 171, 171, 1)"></path><path d="M 0,541 C 96,510.4 288,384.8 480,388 C 672,391.2 768,563.2 960,557 C 1152,550.8 1344,397 1440,357L1440 560L0 560z" fill="rgba(255, 206, 206, 1)"></path></g><defs><mask id="SvgjsMask1008"><rect width="1440" height="560" fill="#ffffff"></rect></mask></defs></svg>