<svg xmlns="http://www.w3.org/2000/svg" version="1.1" xmlns:xlink="http://www.w3.org/1999/xlink" xmlns:svgjs="http://svgjs.dev/svgjs" width="1500" height="560" preserveAspectRatio="none" viewBox="0 0 1500 560"><g mask="url(&quot;#SvgjsMask1007&quot;)" fill="none"><path d="M1550 560L0 560 L0 304.13Q97.5 276.63, 125 374.13Q148.33 322.46, 200 345.79Q221.89 292.68, 275 314.57Q300.93 265.5, 350 291.42Q406.71 273.13, 425 329.85Q452.18 282.03, 500 309.21Q578.84 263.05, 625 341.89Q661 252.88, 750 288.88Q802.24 266.12, 825 318.36Q876.92 295.28, 900 347.21Q948.16 320.37, 975 368.53Q1014.12 282.65, 1100 321.77Q1124.89 271.66, 1175 296.56Q1256.69 253.25, 1300 334.95Q1381.34 291.28, 1425 372.62Q1446.73 269.35, 1550 291.08z" fill="rgba(239, 147, 154, 1)"></path><path d="M1575 560L0 560 L0 368.6Q61.69 355.29, 75 416.98Q127.53 344.51, 200 397.05Q258.98 381.03, 275 440.01Q308.85 348.86, 400 382.71Q456.17 313.88, 525 370.05Q625.66 345.71, 650 446.37Q656 377.38, 725 383.38Q778.55 311.93, 850 365.47Q945.11 335.58, 975 430.69Q998.33 329.01, 1100 352.34Q1173.6 300.93, 1225 374.53Q1294.22 368.75, 1300 437.97Q1353.9 366.88, 1425 420.78Q1438.49 359.26, 1500 372.75Q1544.17 341.92, 1575 386.09z" fill="rgba(244, 180, 185, 1)"></path><path d="M1575 560L0 560 L0 501.46Q16.19 442.65, 75 458.84Q120.41 379.25, 200 424.66Q296.84 396.5, 325 493.34Q363.67 407.01, 450 445.68Q502.24 372.92, 575 425.16Q653.35 378.51, 700 456.86Q772.91 404.77, 825 477.69Q846.88 424.57, 900 446.46Q967.77 389.23, 1025 456.99Q1116.3 423.29, 1150 514.59Q1202.7 442.3, 1275 495Q1279.11 424.11, 1350 428.21Q1427.05 430.25, 1425 507.3Q1467.63 474.93, 1500 517.56Q1506.16 448.72, 1575 454.88z" fill="rgba(248, 209, 212, 1)"></path><path d="M1525 560L0 560 L0 542.05Q17.19 484.24, 75 501.42Q125.37 476.79, 150 527.17Q242.68 494.85, 275 587.52Q289.65 527.17, 350 541.82Q417.63 484.46, 475 552.09Q551.01 503.1, 600 579.11Q608.54 512.65, 675 521.19Q705.64 476.84, 750 507.48Q780.92 463.4, 825 494.32Q886.42 480.74, 900 542.16Q957.42 524.58, 975 581.99Q975.9 507.89, 1050 508.8Q1080.05 463.85, 1125 493.9Q1224.85 468.75, 1250 568.6Q1305.03 498.63, 1375 553.67Q1426.49 530.16, 1450 581.66Q1463.49 520.14, 1525 533.63z" fill="rgba(246, 223, 225, 1)"></path></g><defs><mask id="SvgjsMask1007"><rect width="1500" height="560" fill="#ffffff"></rect></mask></defs></svg>